<?xml version="1.0" encoding="UTF-8"?>
<!DOCTYPE svg PUBLIC "-//W3C//DTD SVG 1.1//EN" "http://www.w3.org/Graphics/SVG/1.1/DTD/svg11.dtd">
<!-- Creator: CorelDRAW -->
<svg xmlns="http://www.w3.org/2000/svg" xml:space="preserve" width="0.808736in" height="0.813378in" version="1.1" style="shape-rendering:geometricPrecision; text-rendering:geometricPrecision; image-rendering:optimizeQuality; fill-rule:evenodd; clip-rule:evenodd"
viewBox="0 0 120.39 121.08"
 xmlns:xlink="http://www.w3.org/1999/xlink"
 xmlns:xodm="http://www.corel.com/coreldraw/odm/2003">
 <defs>
  <style type="text/css">
   <![CDATA[
    .fil1 {fill:#006CB5}
    .fil0 {fill:#999999}
   ]]>
  </style>
 </defs>
 <g id="Layer_x0020_1">
  <metadata id="CorelCorpID_0Corel-Layer"/>
  <g id="_3077252688224">
   <path class="fil0" d="M75.56 50.46c-0.33,-0.09 -4.67,-16.4 -23.82,-14.6 -3.83,0.36 -18.24,6.78 -19.53,11.07 0.11,0.08 -0.08,0.18 0.46,0.15 0.12,-0.01 0.4,-0.12 0.6,-0.16 0.37,-0.07 4.9,-2.36 6.29,-2.75 7.73,-2.2 15.7,2.67 18.28,9.85 0.18,0.5 0.81,1.92 1.08,2.37 9.4,15.68 -7.3,44.85 -16.97,53.96 -4.7,4.43 -14.38,8.61 -21.3,9.78 37.56,10.73 63.48,-72.17 74.82,-79.97 0.34,-0.24 0.2,-0.25 0.47,-0.49 2.74,-2.02 7.04,-5.13 10.44,-5.57l1.13 -0.14c0.63,-0.19 0.16,0.01 0.41,-0.24 -16.66,-3.62 -31.11,17.09 -32.37,16.75z"/>
   <path class="fil1" d="M26.77 116.33c-0.39,-0.44 -1.02,-0.3 -2.22,-0.93 -0.43,-0.23 -0.75,-0.28 -1.11,-0.46 -0.37,-0.19 -0.51,-0.35 -0.92,-0.55 -0.43,-0.21 -0.63,-0.45 -0.93,-0.65l-2.43 -2.2c-0.73,-0.82 -0.26,-0.32 -0.66,-0.92 -0.63,-0.95 -1.17,-1.87 -1.45,-3.19 -0.79,-3.7 -0.23,-5.92 0.94,-9.27l1.01 -2.04c0.21,-0.33 0.31,-0.62 0.54,-1.04 0.18,-0.34 0.17,-0.25 0.35,-0.5l1.54 -2.25c0.28,-0.32 0.33,-0.52 0.68,-0.9 0.55,-0.59 0.91,-1.1 1.39,-1.66 1.04,-1.2 2.77,-2.81 4,-3.79l4.43 -3.36c0.33,-0.24 0.73,-0.38 1.01,-0.57 0.36,-0.25 0.45,-0.3 0.91,-0.56 0.41,-0.22 0.5,-0.4 0.97,-0.61l3.07 -1.57c0.57,-0.21 0.6,-0.22 1.09,-0.48 0.37,-0.19 0.76,-0.27 1.16,-0.42 1.33,-0.52 0.34,-0.24 2.22,-0.83 0.44,-0.14 0.67,-0.31 1.14,-0.44 1.44,-0.41 4.96,-1.4 6.25,-1.57 0.91,-0.12 1.79,-0.2 2.71,-0.32 5.52,-0.68 5.63,0.56 5.77,-3.56 0.04,-1.33 0.23,-1.54 -0.21,-2.79 -3.36,-0.52 -11.72,0.73 -15.36,1.27l-6.8 1.63c-0.58,0.2 -0.88,0.36 -1.58,0.52 -0.75,0.17 -0.9,0.3 -1.55,0.56 -0.52,0.21 -1.09,0.27 -1.59,0.52 -0.53,0.27 -0.81,0.36 -1.43,0.56 -0.6,0.2 -0.83,0.45 -1.45,0.66 -0.69,0.23 -0.88,0.45 -1.43,0.67 -1.18,0.47 -3.53,1.8 -4.84,2.53l-2.56 1.66c-0.31,0.24 -0.2,0.22 -0.54,0.41 -0.58,0.33 -0.74,0.55 -1.24,0.87l-2.93 2.34c-0.21,0.21 -0.26,0.3 -0.47,0.48 -0.43,0.39 -0.71,0.53 -1.12,0.98 -0.68,0.73 -2.53,2.51 -3.01,3.2l-1.85 2.36c-0.69,0.84 -1.84,2.82 -2.45,3.86 -0.74,1.27 -2.14,4.56 -2.46,5.87 -0.48,1.94 -0.79,3.29 -0.85,5.41 -0.1,3.5 0.62,6.12 2.49,8.95 0.18,0.28 0.26,0.25 0.51,0.55 0.59,0.71 1.44,1.52 2.19,2.02 2.13,1.42 3.31,1.93 5.89,2.42 2.11,0.4 1.64,0.25 3.62,-0.04l5.17 -1.04c0.6,-0.14 1.01,-0.34 1.62,-0.49 1.13,-0.26 2.33,-0.35 2.79,-1.3z"/>
   <path class="fil1" d="M106.21 36.09c0.16,0.24 -0.03,0.04 0.18,0.2l0.69 0.24c1.22,0.22 2.31,0.48 3.25,1.3 1.03,0.89 1.23,1.17 1.9,2.62 1.08,2.32 0.08,6.86 -0.66,9.05l-1.61 3.55c-1.04,1.8 -2.08,3.38 -3.43,4.89 -0.37,0.42 -0,0.19 -0.6,0.67 -0.21,0.17 -1.58,1.64 -2.41,2.22 -0.33,0.23 -0.44,0.4 -0.75,0.62 -9.66,6.67 -18.83,5.33 -20.07,5.85 -0.81,0.34 -1.18,2.11 -1.83,3.33 -0.12,0.22 -0.4,0.58 -0.24,0.9 0.19,0.38 -0.07,0.2 0.46,0.23 0.75,0.04 6.8,-0.83 7.63,-0.96 1.42,-0.21 2.89,-0.53 4.34,-0.86l4 -1.14c0.74,-0.23 1.26,-0.24 1.96,-0.58 0.65,-0.31 1.29,-0.38 1.93,-0.7 0.62,-0.31 2.73,-1 3.68,-1.58l4.92 -2.77 2.26 -1.64c1.03,-0.9 1.72,-1.45 2.68,-2.48 0.69,-0.74 1.11,-1.02 1.89,-2.11 2.6,-3.63 4.23,-6.63 3.98,-11.41 -0.11,-2.06 -0.74,-4.32 -1.92,-5.91 -0.38,-0.52 -0.81,-1.02 -1.16,-1.47 -0.83,-1.09 -3.19,-2.48 -4.61,-3.08 -1.6,-0.67 -3.68,0.24 -5.43,0.62 -0.16,0.03 -0.36,0.07 -0.5,0.12l-0.53 0.29z"/>
   <path class="fil1" d="M79.43 74.11c-0.43,0.22 -0.38,0.8 -0.56,1.22 -0.2,0.47 -0.46,0.5 -0.67,1.13l-4.86 11.15c-0.27,0.53 -0.26,0.5 0.11,1.1 0.27,0.44 2.94,1.86 3.37,2 0.51,0.18 0.78,0.29 1.21,0.48 1.32,0.59 4.6,0.94 6.24,0.85 2.33,-0.12 3.92,-0.73 5.81,-1.27l4.71 -2.35c1.03,-0.52 2.31,-1.71 3.13,-2.24 0.38,-0.24 0.52,-0.47 0.91,-0.77l1.86 -1.72c0.29,-0.29 0.59,-0.59 0.9,-0.89 0.3,-0.29 0.69,-0.65 0.88,-0.91 0.37,-0.52 3.49,-3.48 2.04,-3.35 -0.27,0.03 -0.29,0.16 -0.51,0.35 -0.34,0.29 -0.75,0.4 -1.1,0.69 -1.05,0.87 -4.29,2.51 -5.64,3.2 -0.36,0.18 -0.87,0.3 -1.29,0.49 -1.69,0.78 -4.9,1.7 -6.86,1.83 -1.84,0.13 -4.67,-0.1 -6.03,-0.97 -1.03,-0.65 -1.03,-0.48 -2.03,-1.55 -0.48,-0.52 -0.33,-0.34 -0.73,-1.06 -1.98,-3.53 0.07,-6.53 -0.89,-7.42z"/>
   <path class="fil1" d="M13.77 33.45c0.3,0.35 1.35,0.83 1.79,1.05 0.65,0.31 0.67,0.27 1.25,0.48 1.26,0.45 1.93,0.63 3.33,0.74 1.2,0.09 1.62,-0.13 2.33,-0.17 0.26,-0.02 0.5,-0.09 0.78,-0.18 1.26,-0.4 1.45,-0.47 2.48,-1.06 0.24,-0.14 0.48,-0.23 0.71,-0.39 0.45,-0.31 0.88,-0.53 1.3,-0.87 1.15,-0.91 1.23,-1.02 2.23,-1.91 0.65,-0.58 1.33,-1.5 1.42,-1.58 0.33,-0.3 0.59,-0.74 0.84,-1.08 0.47,-0.64 0.76,-1.59 1,-1.76l0.1 0.19c-0.23,0.82 -0.17,1.55 -0.51,2.57 -0.08,0.23 -0.14,0.38 -0.2,0.63l-0.75 1.81c-0.13,0.21 -0.16,0.35 -0.27,0.55 -0.29,0.57 -0.7,1.15 -1.09,1.65 -0.6,0.77 -1.16,1.34 -1.97,1.95 -1.95,1.46 -3.58,1.97 -5.94,2.36 -0.48,0.08 -1.01,0.08 -1.51,0.13 -0.94,0.1 -1.89,0.01 -2.83,-0.11 -1.69,-0.21 -4.28,-0.63 -5.77,-1.41 -0.8,-0.42 -1.26,-0.38 -2.37,-1.08 -0.17,-0.11 -0.36,-0.18 -0.57,-0.32 -0.2,-0.13 -0.36,-0.26 -0.55,-0.37 -2.14,-1.24 -2.96,-2.13 -4.68,-3.72 -0.87,-0.8 -2.17,-2.27 -2.77,-3.29 -0.27,-0.46 -1.59,-2.26 -1.55,-2.69 0.07,-0.32 1.47,-1.5 1.66,-1.68 0.15,-0.14 0.27,-0.25 0.4,-0.41 0.14,-0.16 0.16,-0.28 0.38,-0.46 0.65,-0.51 1.22,-1.09 1.87,-1.57 0.34,-0.25 0.57,-0.49 1,-0.76l1.06 -0.73c0.57,-0.37 1.06,-0.76 1.64,-1.06 0.37,-0.19 0.83,-0.41 1.17,-0.67 0.55,-0.42 1.2,-0.7 1.81,-1.02 2.56,-1.3 4.1,-1.9 6.88,-2.86 1.89,-0.65 3.76,-1.15 5.66,-1.59 0.26,-0.06 0.41,-0.05 0.64,-0.1 0.23,-0.05 0.48,-0.14 0.72,-0.18 0.21,-0.04 0.42,-0.04 0.64,-0.08l6.02 -0.92c0.57,-0.08 2.5,-0.12 3.13,-0.18 0.9,-0.09 2.28,-0.02 3.13,-0.06 0.26,-0.01 0.99,0.05 1.3,-0.11 -0.08,-0.12 -0.07,-0.08 -0.24,-0.17 -0.14,-0.07 -0.18,-0.08 -0.32,-0.14 -0.24,-0.11 -0.35,-0.17 -0.63,-0.29 -0.86,-0.38 -1.68,-0.63 -2.62,-0.72 -0.26,-0.02 -0.47,-0.02 -0.74,-0.04 -1.02,-0.07 -0.9,-0.16 0.04,-1.05 0.94,-0.9 1.89,-1.79 3.04,-2.47l2.36 -1.47c0.47,-0.23 0.7,-0.42 1.31,-0.69 0.47,-0.2 0.89,-0.47 1.38,-0.67 3.06,-1.25 2.88,-1.2 6.05,-2.18l2.93 -0.77c0.49,-0.09 0.99,-0.23 1.46,-0.27 0.52,-0.05 0.9,-0.33 1.35,-0.11l-0.32 0.69c-0.11,0.25 -0.21,0.45 -0.3,0.71 -0.82,2.35 -0.42,4.65 1.18,6.6l0.53 0.68c0.51,0.68 1.1,1.2 1.72,1.76l1.19 1.16c0.09,0.09 0.46,0.32 0.63,0.46 0.62,0.51 1.18,1.05 1.83,1.5 0.63,0.43 1.22,1.04 1.81,1.54 0.2,0.17 0.42,0.3 0.63,0.46 0.21,0.16 0.39,0.37 0.6,0.53 0.41,0.33 0.8,0.72 1.21,1.02 0.42,0.31 2.6,2.5 2.93,2.87 0.19,0.22 0.41,0.4 0.56,0.6 0.35,0.45 0.75,0.8 1.09,1.29l1.01 1.43c0.56,0.7 0.96,1.57 1.45,2.32 0.28,0.43 0.63,1.24 0.88,1.73 0.29,0.57 0.53,1.27 0.81,1.86 0.56,1.19 1.08,2.72 1.39,3.98 0.09,0.34 0.19,0.65 0.29,0.99 0.11,0.37 0.12,0.59 0.19,0.92 0.21,0.96 0.42,1.81 0.51,2.79l0.1 0.9c0.02,0.29 0.02,0.59 0.03,0.85 0.01,0.17 0.06,0.3 0.07,0.47 0.01,0.15 -0.01,0.24 0.02,0.42 0.13,0.9 -0.06,2.46 -0.16,3.31 -0.08,0.61 -0.19,1.01 -0.28,1.56 -0.05,0.28 -0.17,1.3 -0.46,1.5 -0.13,-0.29 -0.18,-2.76 -0.3,-3.43 -0.06,-0.31 0.01,-0.37 -0.05,-0.7 -0.08,-0.44 -0.09,-0.99 -0.15,-1.42 -0.38,-2.77 -1.26,-6.57 -2.51,-9.14 -0.23,-0.48 -0.46,-0.95 -0.68,-1.42 -0.13,-0.26 -0.25,-0.38 -0.37,-0.62l-0.72 -1.3c-0.59,-0.97 -1.34,-1.91 -2.07,-2.79 -0.16,-0.19 -0.24,-0.37 -0.42,-0.55 -0.16,-0.17 -0.32,-0.33 -0.45,-0.48 -0.31,-0.36 -0.6,-0.57 -0.9,-0.87 -0.69,-0.69 -1.37,-1.25 -2.14,-1.83l-0.73 -0.61c-0.71,-0.48 -3.58,-2.31 -4.21,-2.49 -1.19,-0.34 -2.16,-1.1 -3.37,-1.38 -0.44,-0.1 -0.78,-0.2 -1.18,-0.36 -0.41,-0.16 -1.01,-0.29 -1.42,-0.49 -0.23,-0.12 -0.02,-0.05 -0.31,-0.07l-3.08 -0.65c-0.84,-0.16 -1.59,-0.29 -2.47,-0.42 -0.4,-0.06 -0.82,-0.03 -1.27,-0.09 -1.7,-0.25 -4.93,-0.42 -6.6,-0.29l-2.7 0.06c-0.92,0.01 -1.86,0.14 -2.79,0.18 -1.03,0.05 -2.62,0.4 -3.58,0.48l-2.22 0.39c-0.25,0.04 -0.47,0.13 -0.72,0.18 -0.27,0.05 -0.43,0.03 -0.73,0.11 -0.26,0.07 -0.51,0.16 -0.77,0.21 -0.24,0.05 -0.45,0.05 -0.72,0.13 -2.11,0.61 -4.2,1.17 -6.26,1.95 -0.9,0.34 -2.27,0.83 -3.08,1.28 -0.83,0.45 -1.87,0.85 -2.68,1.38 -0.26,0.17 -0.42,0.23 -0.69,0.37l-2.39 1.53c-0.2,0.16 -0.35,0.24 -0.55,0.41l-1.07 0.85c-0.21,0.17 -0.32,0.27 -0.52,0.43 -0.16,0.13 -0.31,0.3 -0.46,0.46l-0.67 0.7c-0.13,0.15 -0.14,0.1 -0.18,0.27 -0.01,0.32 1.39,2.06 1.76,2.47 0.12,0.13 0.31,0.3 0.41,0.39 0.26,0.27 0.54,0.6 0.76,0.9 0.21,0.28 0.54,0.55 0.82,0.78 0.31,0.26 0.55,0.45 0.85,0.71 0.23,0.21 0.62,0.51 0.86,0.68 0.27,0.18 0.52,0.38 0.81,0.5 0.01,0 0.02,0.01 0.03,0.01l0.05 0.02z"/>
   <path class="fil0" d="M15.72 23.68c0.95,-0.18 1.24,-0.08 1.9,0.22 0.67,0.29 1.06,0.84 1.28,1.61 0.2,0.69 0.07,1.46 -0.22,1.93 -1.45,2.31 -4.38,1.39 -4.79,-0.59 -0.2,-0.97 -0.17,-1.27 0.21,-1.94 0.27,-0.47 0.87,-1.09 1.62,-1.23z"/>
   <path class="fil1" d="M79.33 40.79c0.27,-0.51 0.11,-1.03 0.64,-2.59 0.26,-0.77 0.64,-1.71 1.2,-2.49 1.41,-1.97 3.32,-2.78 5.45,-3.88 2.09,-1.08 4.32,-2.24 5.45,-4.14 0.47,-0.79 0.95,-1.67 0.66,-2.61 -0.78,-2.54 -6.85,-3.41 -12.07,4.98 -1.8,2.89 -2.85,8.2 -1.34,10.73z"/>
   <path class="fil1" d="M80.18 40.46c1.87,-1.57 1.15,-1.51 4.02,-1.66 0.59,-0.03 1.45,-0.01 2.08,-0.25 0.91,-0.35 1.57,-1.02 0.87,-1.79 -1.78,-1.97 -6.93,1.03 -6.97,3.7z"/>
  </g>
 </g>
</svg>
